<svg xmlns="http://www.w3.org/2000/svg" width="23" height="23" viewBox="0 0 23 23">
  <g id="Filter_2" data-name="Filter 2" transform="translate(0.5 0.5)">
    <path id="Filter_2-2" data-name="Filter 2" d="M8.23,22a.769.769,0,0,1-.767-.768V13.2L.606,5.639a2.355,2.355,0,0,1-.6-1.384L0,4.061V2.32A2.3,2.3,0,0,1,2.273,0H19.728A2.3,2.3,0,0,1,22,2.32v1.7a2.358,2.358,0,0,1-.671,1.649l-7.444,7.546v5.715a.764.764,0,0,1-.345.64l-.1.054-4.887,2.3A.764.764,0,0,1,8.23,22ZM2.273,1.535a.764.764,0,0,0-.738.786V4.061a.806.806,0,0,0,.208.546L8.8,12.388A.764.764,0,0,1,9,12.9v7.118l3.352-1.577V12.9a.764.764,0,0,1,.143-.447l.077-.092,7.665-7.773a.814.814,0,0,0,.229-.57V2.32a.763.763,0,0,0-.737-.786Z" fill="#22262d" stroke="rgba(0,0,0,0)" stroke-width="1"/>
  </g>
</svg>
