<svg xmlns="http://www.w3.org/2000/svg" width="273.604" height="179.655" viewBox="0 0 273.604 179.655">
  <g id="Illustration_" data-name="Illustration " transform="translate(-16.805 -9.984)">
    <path id="Shape" d="M84.483,9.415C93.769,1.163,108.34-.529,121.6.128,163.262,2.194,200.867,22.282,233.394,45c11.778,8.224,23.371,17.088,31.014,28.416,15.572,23.055,10.945,55-10.691,73.993-7.363,6.465-16.287,11.426-25.449,15.809-16.29,7.811-33.868,14.079-52.354,15.869-13.186,1.27-26.533.238-39.639-1.536-36.62-4.967-72.567-15.936-102.694-34.684-13.214-8.233-25.672-18.463-31.119-31.78S.5,80.9,13.994,73.023c5.581-3.26,12.254-4.732,18.785-6.113,9.617-2.034,19.386-4.04,28.065-8.176,8.962-4.272,19.573-12.537,17.8-21.992C76.741,26.579,75.212,17.667,84.483,9.415Z" transform="translate(16.805 9.984)" fill="red" opacity="0.1"/>
    <path id="Line_20" data-name="Line 20" d="M.742,24.5,24.217,1.022" transform="translate(62.463 115.468)" fill="#a42200" stroke="#a44200" stroke-linecap="square" stroke-miterlimit="10" stroke-width="1.147"/>
    <path id="Line_21" data-name="Line 21" d="M.717,16.492,16.75.458" transform="translate(249.4 112.392)" fill="#920707" stroke="#920707" stroke-linecap="square" stroke-miterlimit="10" stroke-width="1.147"/>
    <path id="Line_21_Copy" data-name="Line 21 Copy" d="M.717,8.461,11.473,0" transform="translate(232.318 159.613)" fill="red" stroke="#920707" stroke-linecap="square" stroke-miterlimit="10" stroke-width="1.147"/>
    <path id="Line_22" data-name="Line 22" d="M.738,9.588,8.884,1.442" transform="translate(62.468 151.029)" fill="red" stroke="red" stroke-linecap="square" stroke-miterlimit="10" stroke-width="1.147"/>
    <g id="Combined_Shape" data-name="Combined Shape" transform="translate(56.953 88.479)" fill="red" stroke-miterlimit="10">
      <path d="M 11.57367038726807 20.07686996459961 L 9.076830863952637 20.07686996459961 L 9.076830863952637 12.14730072021484 L 9.076830863952637 11.57367038726807 L 8.503200531005859 11.57367038726807 L 0.5736306309700012 11.57367038726807 L 0.5736306309700012 9.076830863952637 L 8.503200531005859 9.076830863952637 L 9.076830863952637 9.076830863952637 L 9.076830863952637 8.503200531005859 L 9.076830863952637 0.5736306309700012 L 11.57367038726807 0.5736306309700012 L 11.57367038726807 8.503200531005859 L 11.57367038726807 9.076830863952637 L 12.14730072021484 9.076830863952637 L 20.07686996459961 9.076830863952637 L 20.07686996459961 11.57367038726807 L 12.14730072021484 11.57367038726807 L 11.57367038726807 11.57367038726807 L 11.57367038726807 12.14730072021484 L 11.57367038726807 20.07686996459961 Z" stroke="none"/>
      <path d="M 11.00004100799561 19.50324058532715 L 11.00004100799561 11.00004100799561 L 19.50324058532715 11.00004100799561 L 19.50324058532715 9.650460243225098 L 11.00004100799561 9.650460243225098 L 11.00004100799561 1.147260665893555 L 9.650460243225098 1.147260665893555 L 9.650460243225098 9.650460243225098 L 1.147260665893555 9.650460243225098 L 1.147260665893555 11.00004100799561 L 9.650460243225098 11.00004100799561 L 9.650460243225098 19.50324058532715 L 11.00004100799561 19.50324058532715 M 12.14730072021484 20.6505012512207 L 8.503200531005859 20.6505012512207 L 8.503200531005859 12.14730072021484 L 6.256103688428993e-07 12.14730072021484 L 6.256103688428993e-07 8.503200531005859 L 8.503200531005859 8.503200531005859 L 8.503200531005859 6.256103688428993e-07 L 12.14730072021484 6.256103688428993e-07 L 12.14730072021484 8.503200531005859 L 20.6505012512207 8.503200531005859 L 20.6505012512207 12.14730072021484 L 12.14730072021484 12.14730072021484 L 12.14730072021484 20.6505012512207 Z" stroke="none" fill="red"/>
    </g>
    <g id="Combined_Shape_Copy_5" data-name="Combined Shape Copy 5" transform="translate(111.284 160.616)" fill="red" stroke-miterlimit="10">
      <path d="M 8.199570655822754 14.34117031097412 L 6.715230464935303 14.34117031097412 L 6.715230464935303 8.773200035095215 L 6.715230464935303 8.199570655822754 L 6.141600131988525 8.199570655822754 L 0.5736303329467773 8.199570655822754 L 0.5736303329467773 6.715230464935303 L 6.141600131988525 6.715230464935303 L 6.715230464935303 6.715230464935303 L 6.715230464935303 6.141600131988525 L 6.715230464935303 0.5736303329467773 L 8.199570655822754 0.5736303329467773 L 8.199570655822754 6.141600131988525 L 8.199570655822754 6.715230464935303 L 8.773200035095215 6.715230464935303 L 14.34117031097412 6.715230464935303 L 14.34117031097412 8.199570655822754 L 8.773200035095215 8.199570655822754 L 8.199570655822754 8.199570655822754 L 8.199570655822754 8.773200035095215 L 8.199570655822754 14.34117031097412 Z" stroke="none"/>
      <path d="M 7.625940322875977 13.76753997802734 L 7.625940322875977 7.625940322875977 L 13.76753997802734 7.625940322875977 L 13.76753997802734 7.288860321044922 L 7.625940322875977 7.288860321044922 L 7.625940322875977 1.147260308265686 L 7.288860321044922 1.147260308265686 L 7.288860321044922 7.288860321044922 L 1.147260308265686 7.288860321044922 L 1.147260308265686 7.625940322875977 L 7.288860321044922 7.625940322875977 L 7.288860321044922 13.76753997802734 L 7.625940322875977 13.76753997802734 M 8.773200035095215 14.9148006439209 L 6.141600131988525 14.9148006439209 L 6.141600131988525 8.773200035095215 L 3.219604423065903e-07 8.773200035095215 L 3.219604423065903e-07 6.141600131988525 L 6.141600131988525 6.141600131988525 L 6.141600131988525 3.219604423065903e-07 L 8.773200035095215 3.219604423065903e-07 L 8.773200035095215 6.141600131988525 L 14.9148006439209 6.141600131988525 L 14.9148006439209 8.773200035095215 L 8.773200035095215 8.773200035095215 L 8.773200035095215 14.9148006439209 Z" stroke="none" fill="red"/>
    </g>
    <g id="Combined_Shape_Copy_7" data-name="Combined Shape Copy 7" transform="translate(258.134 94.075)" fill="red" stroke-miterlimit="10">
      <path d="M2.362,5.737V3.374H0V2.362H2.362V0H3.374V2.362H5.737V3.374H3.374V5.737Z" stroke="none"/>
      <path d="M 3.374099969863892 5.736599922180176 L 2.361599922180176 5.736599922180176 L 2.361599922180176 3.374099969863892 L -3.890991351340745e-08 3.374099969863892 L -3.890991351340745e-08 2.361599922180176 L 2.361599922180176 2.361599922180176 L 2.361599922180176 -3.890991351340745e-08 L 3.374099969863892 -3.890991351340745e-08 L 3.374099969863892 2.361599922180176 L 5.736599922180176 2.361599922180176 L 5.736599922180176 3.374099969863892 L 3.374099969863892 3.374099969863892 L 3.374099969863892 5.736599922180176 Z" stroke="none" fill="red"/>
    </g>
    <g id="Combined_Shape_Copy_9" data-name="Combined Shape Copy 9" transform="translate(273.048 135.377)" fill="red" stroke-miterlimit="10">
      <path d="M 4.150469779968262 8.604569435119629 L 3.880229949951172 8.604569435119629 L 3.880229949951172 5.399099826812744 L 3.880229949951172 4.825469970703125 L 3.306599855422974 4.825469970703125 L 0.5736298561096191 4.825469970703125 L 0.5736298561096191 4.352729797363281 L 3.306599855422974 4.352729797363281 L 3.880229949951172 4.352729797363281 L 3.880229949951172 3.779099941253662 L 3.880229949951172 0.5736298561096191 L 4.150469779968262 0.5736298561096191 L 4.150469779968262 3.779099941253662 L 4.150469779968262 4.352729797363281 L 4.724099636077881 4.352729797363281 L 7.457069873809814 4.352729797363281 L 7.457069873809814 4.825469970703125 L 4.724099636077881 4.825469970703125 L 4.150469779968262 4.825469970703125 L 4.150469779968262 5.399099826812744 L 4.150469779968262 8.604569435119629 Z" stroke="none"/>
      <path d="M 4.724099636077881 9.178199768066406 L 3.306599855422974 9.178199768066406 L 3.306599855422974 5.399099826812744 L -1.350402811794993e-07 5.399099826812744 L -1.350402811794993e-07 3.779099941253662 L 3.306599855422974 3.779099941253662 L 3.306599855422974 -1.159667988304136e-07 L 4.724099636077881 -1.159667988304136e-07 L 4.724099636077881 3.779099941253662 L 8.030699729919434 3.779099941253662 L 8.030699729919434 5.399099826812744 L 4.724099636077881 5.399099826812744 L 4.724099636077881 9.178199768066406 Z" stroke="none" fill="red"/>
    </g>
    <g id="Combined_Shape_Copy_10" data-name="Combined Shape Copy 10" transform="translate(211.024 39.425)" fill="#920707" stroke-miterlimit="10">
      <path d="M 4.150469779968262 8.604569435119629 L 3.880229949951172 8.604569435119629 L 3.880229949951172 5.399099826812744 L 3.880229949951172 4.825469970703125 L 3.306599855422974 4.825469970703125 L 0.5736298561096191 4.825469970703125 L 0.5736298561096191 4.352729797363281 L 3.306599855422974 4.352729797363281 L 3.880229949951172 4.352729797363281 L 3.880229949951172 3.779099941253662 L 3.880229949951172 0.5736298561096191 L 4.150469779968262 0.5736298561096191 L 4.150469779968262 3.779099941253662 L 4.150469779968262 4.352729797363281 L 4.724099636077881 4.352729797363281 L 7.457069873809814 4.352729797363281 L 7.457069873809814 4.825469970703125 L 4.724099636077881 4.825469970703125 L 4.150469779968262 4.825469970703125 L 4.150469779968262 5.399099826812744 L 4.150469779968262 8.604569435119629 Z" stroke="none"/>
      <path d="M 4.724099636077881 9.178199768066406 L 3.306599855422974 9.178199768066406 L 3.306599855422974 5.399099826812744 L -1.350402811794993e-07 5.399099826812744 L -1.350402811794993e-07 3.779099941253662 L 3.306599855422974 3.779099941253662 L 3.306599855422974 -1.159667988304136e-07 L 4.724099636077881 -1.159667988304136e-07 L 4.724099636077881 3.779099941253662 L 8.030699729919434 3.779099941253662 L 8.030699729919434 5.399099826812744 L 4.724099636077881 5.399099826812744 L 4.724099636077881 9.178199768066406 Z" stroke="none" fill="#920707"/>
    </g>
    <g id="svgexport-6_27_" data-name="svgexport-6 (27)" transform="translate(108.353 46.323)">
      <path id="Path_384" data-name="Path 384" d="M11.468,8a4.468,4.468,0,1,0,0,8.935h3.846l1.106,9.4q.006.062.015.123L22.16,75.13A20.1,20.1,0,0,0,42.126,92.885H87.341a22.338,22.338,0,0,0,21.479-16.2l9.286-32.5A17.871,17.871,0,0,0,100.923,21.4H24.836l-.526-4.468H27.1A4.468,4.468,0,1,0,27.1,8Z" fill="none" stroke="red" stroke-miterlimit="10" stroke-width="2"/>
      <path id="Path_385" data-name="Path 385" d="M29.935,48a8.935,8.935,0,1,0,8.935,8.935A8.935,8.935,0,0,0,29.935,48Z" transform="translate(17.274 49.353)" fill="red" stroke="rgba(0,0,0,0)" stroke-miterlimit="10" stroke-width="1"/>
      <path id="Path_386" data-name="Path 386" d="M45.935,48a8.935,8.935,0,1,0,8.935,8.935A8.935,8.935,0,0,0,45.935,48Z" transform="translate(37.015 49.353)" fill="red" stroke="rgba(0,0,0,0)" stroke-miterlimit="10" stroke-width="1"/>
      <path id="Path_387" data-name="Path 387" d="M60.47,25.346a4.468,4.468,0,0,1-.074,6.318L42.1,49.535a4.468,4.468,0,0,1-6.244,0l-8.51-8.312a4.468,4.468,0,0,1,6.244-6.392l5.388,5.263L54.152,25.272A4.468,4.468,0,0,1,60.47,25.346Z" transform="translate(23.443 19.741)" fill="#38c976" stroke="rgba(0,0,0,0)" stroke-miterlimit="10" stroke-width="1"/>
    </g>
  </g>
</svg>
