<svg xmlns="http://www.w3.org/2000/svg" width="9.425" height="10.807" viewBox="0 0 9.425 10.807">
  <g id="Lock" transform="translate(0.5 0.5)">
    <path id="Stroke_1" data-name="Stroke 1" d="M5.047,3.551V2.413A2.468,2.468,0,0,0,2.529,0,2.468,2.468,0,0,0,0,2.4V3.551" transform="translate(1.689 0)" fill="none" stroke="#22262d" stroke-linecap="round" stroke-linejoin="round" stroke-miterlimit="10" stroke-width="1"/>
    <path id="Stroke_3" data-name="Stroke 3" d="M6.327,6.294H2.1A2.056,2.056,0,0,1,0,4.284V2.01A2.056,2.056,0,0,1,2.1,0H6.327a2.056,2.056,0,0,1,2.1,2.01V4.284A2.056,2.056,0,0,1,6.327,6.294Z" transform="translate(0 3.513)" fill="none" stroke="#22262d" stroke-linecap="round" stroke-linejoin="round" stroke-miterlimit="10" stroke-width="1"/>
    <path id="Stroke_5" data-name="Stroke 5" d="M.5,0V1.177" transform="translate(3.713 6.072)" fill="none" stroke="#22262d" stroke-linecap="round" stroke-linejoin="round" stroke-miterlimit="10" stroke-width="1"/>
  </g>
</svg>
