<svg xmlns="http://www.w3.org/2000/svg" width="12.575" height="14.532" viewBox="0 0 12.575 14.532">
  <g id="Notification" transform="translate(0.75 0.75)">
    <path id="Path_425" d="M0,7.679V7.536A2.345,2.345,0,0,1,.392,6.352,3.173,3.173,0,0,0,1.17,4.844c0-.434,0-.875.038-1.309A4.233,4.233,0,0,1,5.512,0h.051A4.245,4.245,0,0,1,9.873,3.536c.038.434,0,.875.032,1.309a3.228,3.228,0,0,0,.777,1.513,2.284,2.284,0,0,1,.392,1.179v.136a2.323,2.323,0,0,1-.55,1.557,2.935,2.935,0,0,1-1.858.893,29.367,29.367,0,0,1-6.264,0A2.967,2.967,0,0,1,.544,9.23,2.348,2.348,0,0,1,0,7.679Z" transform="translate(0 0)" fill="none" stroke="#22262d" stroke-linecap="round" stroke-linejoin="round" stroke-miterlimit="10" stroke-width="1.5"/>
    <path id="Path_421" d="M0,0A1.994,1.994,0,0,0,1.327.734,2.012,2.012,0,0,0,2.794.329,1.88,1.88,0,0,0,3.135,0" transform="translate(3.945 12.282)" fill="none" stroke="#22262d" stroke-linecap="round" stroke-linejoin="round" stroke-miterlimit="10" stroke-width="1.5"/>
  </g>
</svg>
