<svg xmlns="http://www.w3.org/2000/svg" width="11.61" height="11.61" viewBox="0 0 11.61 11.61">
  <g id="svgexport-16" transform="translate(-0.003 0)">
    <path id="Path_54161" data-name="Path 54161" d="M11.085,5.854V4.222a1.053,1.053,0,0,0-.971-1.047L8.6.528A1.044,1.044,0,0,0,7.166.142L1.971,3.167H1.058A1.056,1.056,0,0,0,0,4.222v6.333A1.056,1.056,0,0,0,1.058,11.61H10.03a1.056,1.056,0,0,0,1.055-1.055V8.923a.79.79,0,0,0,.528-.743V6.6a.79.79,0,0,0-.528-.743ZM9.5,3.167H7.2l1.725-1ZM8.663,1.7,6.152,3.167H5.11L8.4,1.249ZM7.431.6A.51.51,0,0,1,7.823.546.517.517,0,0,1,8.14.791h0L4.061,3.167H3.02L7.431.6Zm3.126,9.956a.528.528,0,0,1-.528.528H1.058a.528.528,0,0,1-.528-.528V4.222a.528.528,0,0,1,.528-.528H10.03a.528.528,0,0,1,.528.528V5.805H8.974a1.583,1.583,0,0,0,0,3.166h1.583Zm.528-2.375a.264.264,0,0,1-.264.264H8.974a1.055,1.055,0,0,1,0-2.111h1.847a.264.264,0,0,1,.264.264V8.18Z" transform="translate(0 0)" fill="#22262d"/>
    <path id="Path_54162" data-name="Path 54162" d="M341.865,277.341a.528.528,0,1,0,.528.528A.528.528,0,0,0,341.865,277.341Z" transform="translate(-332.89 -270.48)" fill="#22262d"/>
  </g>
</svg>
