<svg xmlns="http://www.w3.org/2000/svg" width="73.652" height="18.822" viewBox="0 0 73.652 18.822">
  <g id="svgexport-6_24_" data-name="svgexport-6 (24)" transform="translate(0 -187.6)">
    <path id="Path_358" data-name="Path 358" d="M353.4,221.2h-3.975a.777.777,0,0,0-.585.468L347.2,231.955a.31.31,0,0,0,.351.351h2.1a.31.31,0,0,0,.351-.351l.468-2.923a.535.535,0,0,1,.585-.468h1.286q4.033,0,4.559-3.858a3.064,3.064,0,0,0-.468-2.572,4.715,4.715,0,0,0-3.04-.935m.468,3.858c-.234,1.4-1.286,1.4-2.338,1.4h-.7l.468-2.689c0-.117.117-.234.351-.234h.234c.7,0,1.4,0,1.754.468.234.117.234.468.234,1.052" transform="translate(-296.462 -28.69)" fill="#139ad6"/>
    <g id="Group_263" data-name="Group 263" transform="translate(22.096 192.51)">
      <path id="Path_359" data-name="Path 359" d="M157.4,221.2h-3.975a.777.777,0,0,0-.585.468L151.2,231.955a.31.31,0,0,0,.351.351h1.871a.777.777,0,0,0,.585-.468l.468-2.806a.535.535,0,0,1,.585-.468h1.286q4.033,0,4.559-3.858a3.064,3.064,0,0,0-.468-2.572,4.493,4.493,0,0,0-3.04-.935m.468,3.858c-.234,1.4-1.286,1.4-2.338,1.4h-.585l.468-2.689c0-.117.117-.234.351-.234h.234c.7,0,1.4,0,1.754.468a1.252,1.252,0,0,1,.117,1.052" transform="translate(-151.2 -221.2)" fill="#263b80"/>
      <path id="Path_360" data-name="Path 360" d="M222.974,245.434H221.1c-.117,0-.351.117-.351.234l-.117.585-.117-.234a2.75,2.75,0,0,0-2.221-.818,4.492,4.492,0,0,0-4.326,3.858,3.485,3.485,0,0,0,.7,2.923,2.946,2.946,0,0,0,2.455.935,3.737,3.737,0,0,0,2.689-1.052l-.117.585a.31.31,0,0,0,.351.351H221.8a.777.777,0,0,0,.585-.468l1.052-6.547c-.117-.117-.351-.351-.468-.351m-2.689,3.741a2.261,2.261,0,0,1-2.221,1.871,1.869,1.869,0,0,1-1.286-.468,2.493,2.493,0,0,1-.351-1.4,2.085,2.085,0,0,1,3.39-1.4,2.041,2.041,0,0,1,.468,1.4" transform="translate(-204.736 -241.693)" fill="#263b80"/>
    </g>
    <path id="Path_361" data-name="Path 361" d="M418.174,245.434H416.3c-.117,0-.351.117-.351.234l-.117.585-.117-.234a2.75,2.75,0,0,0-2.221-.818,4.492,4.492,0,0,0-4.326,3.858,3.484,3.484,0,0,0,.7,2.923,2.946,2.946,0,0,0,2.455.935,3.737,3.737,0,0,0,2.689-1.052l-.117.585a.31.31,0,0,0,.351.351H417a.777.777,0,0,0,.585-.468l1.052-6.547c-.117-.117-.234-.351-.468-.351m-2.689,3.741a2.261,2.261,0,0,1-2.221,1.871,1.869,1.869,0,0,1-1.286-.468,2.493,2.493,0,0,1-.351-1.4,2.085,2.085,0,0,1,3.39-1.4,1.342,1.342,0,0,1,.468,1.4" transform="translate(-349.315 -49.183)" fill="#139ad6"/>
    <path id="Path_362" data-name="Path 362" d="M293,246.8h-1.987a.607.607,0,0,0-.468.234l-2.572,3.975-1.169-3.741a.54.54,0,0,0-.585-.351h-1.871c-.234,0-.351.234-.351.468l2.1,6.2-1.987,2.806c-.117.234,0,.585.234.585h1.871a.607.607,0,0,0,.468-.234l6.43-9.236c.351-.351.117-.7-.117-.7" transform="translate(-242.498 -50.549)" fill="#263b80"/>
    <path id="Path_363" data-name="Path 363" d="M476.837,221.966,475.2,232.488a.31.31,0,0,0,.351.351h1.637a.777.777,0,0,0,.585-.468l1.637-10.288a.31.31,0,0,0-.351-.351h-1.87c-.117-.117-.234,0-.351.234" transform="translate(-405.757 -29.105)" fill="#139ad6"/>
    <path id="Path_364" data-name="Path 364" d="M13.444,189c-.818-.935-2.338-1.4-4.442-1.4H3.157a1,1,0,0,0-.818.7L0,203.616a.535.535,0,0,0,.468.585H4.092l.935-5.728v.234a1,1,0,0,1,.818-.7H7.6c3.39,0,5.962-1.4,6.781-5.261v-.351h0a4.083,4.083,0,0,0-.935-3.39" transform="translate(0 0)" fill="#263b80"/>
    <path id="Path_365" data-name="Path 365" d="M36.122,220.4h0v.351c-.818,3.975-3.39,5.261-6.781,5.261H27.587a1,1,0,0,0-.818.7L25.6,233.844a.428.428,0,0,0,.468.468h3.04a.655.655,0,0,0,.7-.585v-.117l.585-3.624v-.234a.655.655,0,0,1,.7-.585h.468c2.923,0,5.261-1.169,5.845-4.676a4.3,4.3,0,0,0-.585-3.507,1.2,1.2,0,0,0-.7-.585" transform="translate(-21.859 -28.007)" fill="#139ad6"/>
    <path id="Path_366" data-name="Path 366" d="M42.817,215.951c-.117,0-.234-.117-.351-.117a.429.429,0,0,1-.351-.117,6.177,6.177,0,0,0-1.52-.117H36.037a.43.43,0,0,0-.351.117.643.643,0,0,0-.351.585l-.935,6.079v.234a1,1,0,0,1,.818-.7h1.754c3.39,0,5.962-1.4,6.781-5.261a.429.429,0,0,1,.117-.351c-.234-.117-.351-.234-.585-.234-.351-.117-.351-.117-.468-.117" transform="translate(-29.373 -23.908)" fill="#232c65"/>
  </g>
</svg>
