<svg xmlns="http://www.w3.org/2000/svg" width="11.933" height="12.648" viewBox="0 0 11.933 12.648">
  <g id="Setting" transform="translate(-0.198 -0.278)">
    <path id="Path_33946" d="M10.622,3.239l-.377-.655a1.159,1.159,0,0,0-1.581-.427h0a1.154,1.154,0,0,1-1.581-.41,1.109,1.109,0,0,1-.155-.555h0A1.159,1.159,0,0,0,5.768,0h-.76A1.154,1.154,0,0,0,3.855,1.159h0A1.159,1.159,0,0,1,2.7,2.3a1.109,1.109,0,0,1-.555-.155h0A1.159,1.159,0,0,0,.56,2.574l-.4.666A1.159,1.159,0,0,0,.577,4.82h0a1.159,1.159,0,0,1,.58,1,1.159,1.159,0,0,1-.58,1h0A1.154,1.154,0,0,0,.155,8.4h0l.383.66a1.159,1.159,0,0,0,1.581.449h0a1.148,1.148,0,0,1,1.575.422,1.109,1.109,0,0,1,.155.555h0a1.159,1.159,0,0,0,1.159,1.159h.76a1.159,1.159,0,0,0,1.159-1.154h0A1.154,1.154,0,0,1,8.087,9.335a1.181,1.181,0,0,1,.555.155h0a1.159,1.159,0,0,0,1.581-.422h0l.4-.666A1.154,1.154,0,0,0,10.2,6.823h0a1.154,1.154,0,0,1-.422-1.581A1.137,1.137,0,0,1,10.2,4.82h0a1.159,1.159,0,0,0,.422-1.575h0Z" transform="translate(0.779 0.778)" fill="none" stroke="#22262d" stroke-linecap="round" stroke-linejoin="round" stroke-miterlimit="10" stroke-width="1"/>
    <circle id="Ellipse_737" cx="1.598" cy="1.598" r="1.598" transform="translate(4.572 5.005)" fill="none" stroke="#22262d" stroke-linecap="round" stroke-linejoin="round" stroke-miterlimit="10" stroke-width="1"/>
  </g>
</svg>
