<svg xmlns="http://www.w3.org/2000/svg" width="12.937" height="11.789" viewBox="0 0 12.937 11.789">
  <g id="Ticket_Star" data-name="Ticket Star" transform="translate(0.2 0.2)">
    <path id="Ticket_Star-2" data-name="Ticket Star" d="M2.6,11.389A2.6,2.6,0,0,1,0,8.791V7.1a.471.471,0,0,1,.47-.47A.934.934,0,0,0,1.4,5.695.887.887,0,0,0,.47,4.816.471.471,0,0,1,0,4.346V2.6A2.6,2.6,0,0,1,2.6,0H9.94a2.6,2.6,0,0,1,2.6,2.6V4.291a.47.47,0,0,1-.47.471l-.09,0a.933.933,0,0,0,.09,1.862.471.471,0,0,1,.47.47V8.791a2.6,2.6,0,0,1-2.6,2.6ZM.941,2.6V3.932L1,3.948A1.794,1.794,0,0,1,2.341,5.585l0,.109A1.883,1.883,0,0,1,1,7.492L.94,7.508V8.791a1.659,1.659,0,0,0,1.552,1.654l.1,0H9.94A1.659,1.659,0,0,0,11.6,8.791V7.508l-.062-.016A1.874,1.874,0,0,1,10.2,5.805l0-.111a1.882,1.882,0,0,1,1.341-1.8l.063-.017V2.6A1.659,1.659,0,0,0,10.044.943l-.1,0H2.6A1.659,1.659,0,0,0,.941,2.6ZM4.666,7.669a.6.6,0,0,1-.162-.45l.008-.067.166-.972-.705-.687a.609.609,0,0,1,.269-1.025l.069-.014.974-.142.437-.886a.609.609,0,0,1,1.092,0l.437.885.977.142a.61.61,0,0,1,.384.987l-.048.052-.706.687.167.972a.6.6,0,0,1-.131.493.615.615,0,0,1-.47.22A.6.6,0,0,1,7.2,7.822L7.14,7.794l-.872-.458L5.4,7.795a.6.6,0,0,1-.282.071A.616.616,0,0,1,4.666,7.669ZM6.427,6.362l.06.027.5.262L6.89,6.1a.469.469,0,0,1,.091-.367l.044-.049.4-.392-.555-.08a.475.475,0,0,1-.321-.2L6.517,4.95l-.249-.5-.249.5a.471.471,0,0,1-.354.257l-.555.08.4.392a.472.472,0,0,1,.142.351L5.648,6.1l-.1.554.5-.261a.469.469,0,0,1,.377-.027Z" fill="#22262d" stroke="#22262d" stroke-width="0.4"/>
  </g>
</svg>
