<svg xmlns="http://www.w3.org/2000/svg" width="62.084" height="18.822" viewBox="0 0 62.084 18.822">
  <g id="svgexport-6_23_" data-name="svgexport-6 (23)" transform="translate(0 -175.6)">
    <path id="Path_367" data-name="Path 367" d="M184.8,198.138l3.153-17.738h4.927l-3.055,17.738Z" transform="translate(-162.036 -4.209)" fill="#3c58bf"/>
    <path id="Path_368" data-name="Path 368" d="M184.8,198.138l4.04-17.738h4.04l-3.055,17.738Z" transform="translate(-162.036 -4.209)" fill="#293688"/>
    <path id="Path_369" data-name="Path 369" d="M263.077,176.388a12.5,12.5,0,0,0-4.533-.788c-4.927,0-8.475,2.464-8.475,6.011,0,2.661,2.464,4.04,4.435,4.927s2.562,1.478,2.562,2.267c0,1.183-1.577,1.774-2.956,1.774a10.711,10.711,0,0,1-4.73-.985l-.69-.3-.69,4.04a15.978,15.978,0,0,0,5.617.985c5.223,0,8.672-2.464,8.672-6.208,0-2.069-1.281-3.646-4.237-4.927-1.774-.887-2.858-1.38-2.858-2.267,0-.788.887-1.577,2.858-1.577a9.039,9.039,0,0,1,3.745.69l.493.2.788-3.843Z" transform="translate(-217.451 0)" fill="#3c58bf"/>
    <path id="Path_370" data-name="Path 370" d="M263.077,176.388a12.5,12.5,0,0,0-4.533-.788c-4.927,0-7.588,2.464-7.588,6.011,0,2.661,1.577,4.04,3.548,4.927s2.562,1.478,2.562,2.267c0,1.183-1.577,1.774-2.956,1.774a10.711,10.711,0,0,1-4.73-.985l-.69-.3-.69,4.04a15.978,15.978,0,0,0,5.617.985c5.223,0,8.672-2.464,8.672-6.208,0-2.069-1.281-3.646-4.237-4.927-1.774-.887-2.858-1.38-2.858-2.267,0-.788.887-1.577,2.858-1.577a9.039,9.039,0,0,1,3.745.69l.493.2.788-3.843Z" transform="translate(-217.451 0)" fill="#293688"/>
    <path id="Path_371" data-name="Path 371" d="M368.353,180.4c-1.183,0-2.069.1-2.562,1.281L358.4,198.138h5.321l.985-2.956h6.307l.591,2.956h4.73L372.2,180.4Zm-2.267,11.825c.3-.887,1.971-5.223,1.971-5.223s.394-1.084.69-1.774l.3,1.675s.985,4.435,1.183,5.42h-4.139Z" transform="translate(-314.252 -4.209)" fill="#3c58bf"/>
    <path id="Path_372" data-name="Path 372" d="M369.536,180.4c-1.183,0-2.069.1-2.562,1.281L358.4,198.138h5.321l.985-2.956h6.307l.591,2.956h4.73L372.2,180.4Zm-3.449,11.825c.394-.985,1.971-5.223,1.971-5.223s.394-1.084.69-1.774l.3,1.675s.985,4.435,1.183,5.42h-4.139Z" transform="translate(-314.252 -4.209)" fill="#293688"/>
    <path id="Path_373" data-name="Path 373" d="M58.591,193.518l-.493-2.562a14.285,14.285,0,0,0-6.9-7.785l4.435,15.767h5.321L68.938,181.2H63.617Z" transform="translate(-44.893 -4.91)" fill="#3c58bf"/>
    <path id="Path_374" data-name="Path 374" d="M58.591,193.518l-.493-2.562a14.285,14.285,0,0,0-6.9-7.785l4.435,15.767h5.321L68.938,181.2H64.6Z" transform="translate(-44.893 -4.91)" fill="#293688"/>
    <path id="Path_375" data-name="Path 375" d="M0,180.4l.887.2c6.307,1.478,10.643,5.223,12.318,9.657l-1.774-8.376c-.3-1.183-1.183-1.478-2.267-1.478Z" transform="translate(0 -4.209)" fill="#ffbc00"/>
    <path id="Path_376" data-name="Path 376" d="M0,180.4H0c6.307,1.478,11.53,5.321,13.205,9.756l-1.675-7a2.4,2.4,0,0,0-2.365-1.872Z" transform="translate(0 -4.209)" fill="#f7981d"/>
    <path id="Path_377" data-name="Path 377" d="M0,180.4H0c6.307,1.478,11.53,5.321,13.205,9.756l-1.183-3.843c-.3-1.183-.69-2.365-2.069-2.858Z" transform="translate(0 -4.209)" fill="#ed7c00"/>
    <g id="Group_264" data-name="Group 264" transform="translate(6.405 178.162)">
      <path id="Path_378" data-name="Path 378" d="M64.22,206.255,60.869,202.9l-1.577,3.745-.394-2.464A14.285,14.285,0,0,0,52,196.4l4.435,15.767h5.321Z" transform="translate(-52 -196.4)" fill="#051244"/>
      <path id="Path_379" data-name="Path 379" d="M189.826,293.536l-4.237-4.336-.788,4.336Z" transform="translate(-168.441 -277.769)" fill="#051244"/>
      <path id="Path_380" data-name="Path 380" d="M256.573,274.8h0c.394.394.591.69.493,1.084,0,1.183-1.577,1.774-2.956,1.774a10.711,10.711,0,0,1-4.73-.985l-.69-.3-.69,4.04a15.978,15.978,0,0,0,5.617.985c3.153,0,5.716-.887,7.194-2.464Z" transform="translate(-223.856 -265.143)" fill="#051244"/>
      <path id="Path_381" data-name="Path 381" d="M364,232.509h4.632l.985-2.956h6.307l.591,2.956h4.73l-1.675-7.194-5.913-5.716.3,1.577s.985,4.435,1.183,5.42H371c.394-.985,1.971-5.223,1.971-5.223s.394-1.084.69-1.774" transform="translate(-325.567 -216.742)" fill="#051244"/>
    </g>
  </g>
</svg>
