<svg xmlns="http://www.w3.org/2000/svg" width="14.352" height="13.559" viewBox="0 0 14.352 13.559">
  <g id="Wallet" transform="translate(0.5 0.5)">
    <path id="Stroke_1" data-name="Stroke 1" d="M4.7,3.825H1.878A1.9,1.9,0,0,1,0,1.913,1.9,1.9,0,0,1,1.878,0H4.7" transform="translate(8.65 4.273)" fill="none" stroke="#22262d" stroke-linecap="round" stroke-linejoin="round" stroke-miterlimit="10" stroke-width="1"/>
    <path id="Stroke_3" data-name="Stroke 3" d="M.517.456H.3" transform="translate(10.33 5.686)" fill="none" stroke="#22262d" stroke-linecap="round" stroke-linejoin="round" stroke-miterlimit="10" stroke-width="1"/>
    <path id="Stroke_5" data-name="Stroke 5" d="M3.661,0h6.03a3.7,3.7,0,0,1,3.661,3.729v5.1a3.7,3.7,0,0,1-3.661,3.729H3.661A3.7,3.7,0,0,1,0,8.83v-5.1A3.7,3.7,0,0,1,3.661,0Z" fill="none" stroke="#22262d" stroke-linecap="round" stroke-linejoin="round" stroke-miterlimit="10" stroke-width="1"/>
    <path id="Stroke_7" data-name="Stroke 7" d="M0,.456H3.767" transform="translate(3.164 2.769)" fill="none" stroke="#22262d" stroke-linecap="round" stroke-linejoin="round" stroke-miterlimit="10" stroke-width="1"/>
  </g>
</svg>
